<?xml version="1.0" standalone="no"?>
<!DOCTYPE svg PUBLIC "-//W3C//DTD SVG 20010904//EN"
 "http://www.w3.org/TR/2001/REC-SVG-20010904/DTD/svg10.dtd">
<svg version="1.0" xmlns="http://www.w3.org/2000/svg"
 width="500.000000pt" height="500.000000pt" viewBox="0 0 500.000000 500.000000"
 preserveAspectRatio="xMidYMid meet">

<g transform="translate(0.000000,500.000000) scale(0.100000,-0.100000)"
fill="#000000" stroke="none">
<path d="M2726 4115 c-9 -26 -7 -32 5 -12 6 10 9 21 6 23 -2 3 -7 -2 -11 -11z"/>
<path d="M2742 4096 c-14 -30 -9 -47 9 -29 6 6 9 21 7 34 -3 23 -3 23 -16 -5z"/>
<path d="M2764 4054 c3 -8 2 -12 -4 -9 -5 3 -14 -3 -19 -14 -14 -25 -14 -27 5
-46 15 -15 15 -17 1 -28 -15 -11 -15 -16 3 -56 23 -51 26 -74 5 -47 -15 19
-15 19 -16 -5 -3 -95 1 -284 6 -332 6 -51 9 -56 23 -45 13 12 14 10 3 -10 -12
-22 -8 -42 8 -42 10 0 57 107 72 163 6 25 9 68 8 95 -2 28 -1 48 2 46 10 -6
-2 90 -13 103 -5 7 -7 21 -3 33 3 11 3 20 -2 20 -4 0 -9 14 -10 32 -1 17 -7
34 -12 37 -5 4 -12 19 -15 35 -3 15 -9 33 -15 39 -9 12 -11 18 -11 37 0 6 -5
10 -11 10 -6 0 -8 -7 -5 -16z m0 -49 c3 -8 1 -15 -4 -15 -6 0 -10 7 -10 15 0
8 2 15 4 15 2 0 6 -7 10 -15z m16 -455 c0 -5 -4 -10 -10 -10 -5 0 -10 5 -10
10 0 6 5 10 10 10 6 0 10 -4 10 -10z m13 -95 c-3 -9 -8 -14 -10 -11 -3 3 -2 9
2 15 9 16 15 13 8 -4z"/>
<path d="M3092 3764 c-74 -65 -97 -112 -96 -199 0 -86 27 -148 138 -315 180
-269 243 -456 234 -695 -5 -131 -17 -177 -74 -291 -36 -71 -46 -85 -133 -178
l-46 -50 68 59 c137 118 253 308 303 501 23 86 27 119 27 249 0 223 -41 383
-157 620 -53 106 -197 345 -208 345 -2 0 -27 -21 -56 -46z"/>
<path d="M2729 3478 c-7 -15 -4 -70 3 -74 5 -3 2 -14 -7 -24 -14 -15 -14 -18
-1 -23 9 -4 18 -1 22 5 4 7 3 8 -4 4 -21 -13 -13 11 9 25 l21 14 -22 28 c-12
15 -18 31 -15 37 3 5 4 10 1 10 -3 0 -6 -1 -7 -2z"/>
<path d="M3522 2670 c0 -19 2 -27 5 -17 2 9 2 25 0 35 -3 9 -5 1 -5 -18z"/>
<path d="M3502 2541 c-31 -147 -108 -297 -226 -439 -186 -224 -400 -343 -668
-374 -310 -35 -622 89 -864 344 -83 87 -120 140 -175 246 -46 88 -43 62 6 -45
51 -112 121 -211 209 -299 136 -136 288 -222 474 -271 124 -32 331 -36 457 -9
191 42 361 133 501 271 103 102 159 179 216 302 43 92 90 261 86 308 -2 23 -6
15 -16 -34z"/>
<path d="M3072 2016 c-46 -33 -53 -43 -14 -20 19 10 38 25 44 32 15 17 8 14
-30 -12z"/>
<path d="M3000 1970 c-31 -20 -148 -59 -212 -70 -37 -7 -65 -16 -62 -21 7 -12
98 -2 102 11 2 5 8 8 13 5 9 -6 179 69 179 79 0 8 -2 7 -20 -4z"/>
<path d="M2242 968 c-25 -25 -13 -48 33 -68 47 -20 56 -39 29 -61 -12 -10 -22
-10 -46 -1 -25 9 -28 9 -18 -4 7 -8 25 -14 40 -14 59 0 69 67 12 86 -41 13
-56 28 -48 49 5 13 15 16 40 13 19 -2 32 0 30 4 -8 12 -59 9 -72 -4z"/>
<path d="M2390 960 c-42 -42 -10 -140 46 -140 14 0 37 12 51 26 22 22 25 32
20 67 -3 23 -14 47 -23 54 -26 19 -71 16 -94 -7z m90 -5 c20 -24 16 -96 -6
-112 -23 -17 -45 -17 -69 1 -23 17 -27 85 -6 110 17 20 65 21 81 1z"/>
<path d="M2562 898 l2 -83 3 77 4 77 37 4 37 4 -42 1 -43 2 2 -82z"/>
<path d="M2692 973 c26 -4 27 -6 31 -81 l3 -77 2 77 c2 75 2 77 30 81 15 2 0
4 -33 4 -33 0 -48 -2 -33 -4z"/>
<path d="M2603 893 c9 -2 23 -2 30 0 6 3 -1 5 -18 5 -16 0 -22 -2 -12 -5z"/>
</g>
</svg>
